<svg width="119" height="313" viewBox="0 0 119 313" fill="none" xmlns="http://www.w3.org/2000/svg">
<path d="M32.3153 58.5622C12.7272 58.5622 0.177918 75.522 0.177918 92.2671V170.651C-0.00236605 185.967 22.0518 185.967 22.1254 170.651V98.5378H27.6123V297.632C27.2721 318.419 56.6457 317.824 56.6143 297.632V181.624H61.3174V297.632C61.7015 317.824 91.2287 318.419 91.1032 297.632V98.5378H96.5902V170.651C96.3315 186.084 118.271 186.084 118.538 170.651V92.2671C118.224 75.522 105.205 58.8624 85.6164 58.5622H32.3153Z" fill="black"/>
<path d="M59.3577 51.5077C73.427 51.5077 84.8324 40.1023 84.8324 26.033C84.8324 11.9637 73.427 0.558289 59.3577 0.558289C45.2884 0.558289 33.883 11.9637 33.883 26.033C33.883 40.1023 45.2884 51.5077 59.3577 51.5077Z" fill="black"/>
</svg>
